<svg width="19" height="20" viewBox="0 0 19 20" fill="none" xmlns="http://www.w3.org/2000/svg">
<path d="M10.3769 7.28761V7.28762L10.3788 7.2876C10.8226 7.28346 11.25 7.45503 11.5679 7.76494C11.8852 8.07439 12.0676 8.49678 12.0751 8.93992V18.3241H6.90972V8.93991C6.91722 8.49677 7.09951 8.07438 7.41695 7.76496L7.41697 7.76494C7.7348 7.45505 8.16221 7.28345 8.60603 7.2876V7.28761H8.6079H10.3694H10.3769ZM6.77286 7.11201L6.77284 7.11203C6.27921 7.59148 5.99617 8.24721 5.98581 8.93526L5.98579 8.93525V8.93827V19.0328V19.2328H6.18579H12.8067H13.0067V19.0328V8.93827H13.0067L13.0067 8.93526C12.9963 8.24725 12.7133 7.59148 12.2196 7.11203L12.2196 7.11201C11.7263 6.63303 11.0631 6.36942 10.3756 6.3789H10.3694H8.61687C7.92938 6.3694 7.26615 6.63304 6.77286 7.11201Z" fill="#8492AA" stroke="#8492AA" stroke-width="0.4"/>
<path d="M10.7351 2.20157L10.7351 2.20157C11.0654 2.52259 11.2551 2.96141 11.2627 3.4219C11.2621 4.05253 10.9255 4.63502 10.3794 4.9503C9.83292 5.26584 9.15948 5.26584 8.61292 4.9503C8.06685 4.63502 7.73022 4.05253 7.72967 3.42191C7.73719 2.96146 7.92692 2.52264 8.25723 2.20157C8.58788 1.88019 9.03256 1.70299 9.49361 1.70892L9.49618 1.50894L9.49875 1.70892C9.9598 1.70298 10.4045 1.88018 10.7351 2.20157ZM9.49616 0.800209C8.79296 0.79109 8.11498 1.06123 7.61062 1.55124L7.61061 1.55125C7.10546 2.04211 6.81606 2.71336 6.80576 3.41741L6.80547 3.41741L6.80589 3.42815C6.84251 4.36441 7.36315 5.21416 8.18041 5.672L8.18042 5.67201C8.99784 6.12985 9.99449 6.12985 10.8119 5.67201L10.8119 5.672C11.6292 5.21416 12.1498 4.36441 12.1864 3.42815L12.1867 3.42816L12.1866 3.41741C12.1763 2.71337 11.8869 2.04208 11.3817 1.55125C10.8774 1.0612 10.1994 0.791073 9.49616 0.800209Z" fill="#8492AA" stroke="#8492AA" stroke-width="0.4"/>
<path d="M2.05129 8.0206C2.25557 7.82198 2.5299 7.71214 2.81466 7.71461L2.81466 7.71468H2.82228V7.71461C3.10707 7.71214 3.38139 7.82199 3.58565 8.02059L3.58565 8.0206C3.79066 8.21992 3.90841 8.49255 3.91301 8.77857V16.0955H1.72393V8.77858C1.72854 8.49251 1.84619 8.21992 2.05126 8.02063L2.05129 8.0206ZM2.81853 6.80591C2.29129 6.80031 1.78337 7.00336 1.4052 7.37084L1.40519 7.37084C1.02541 7.73988 0.807818 8.24457 0.800022 8.77409L0.8 8.77409V8.77704V16.8043V17.0043H1H4.63704H4.83704V16.8043V8.77704H4.83706L4.83702 8.77409C4.82922 8.24456 4.61161 7.73989 4.23185 7.37084L4.23185 7.37084C3.85367 7.00336 3.34572 6.80032 2.81853 6.80591Z" fill="#8492AA" stroke="#8492AA" stroke-width="0.4"/>
<path d="M2.8147 6.49801C2.34948 6.50413 1.90073 6.32534 1.56715 6.00101L1.56712 6.00097C1.23292 5.67587 1.0415 5.23125 1.03537 4.76499L1.0353 4.75947L1.03537 4.75947C1.0421 4.29363 1.23364 3.84954 1.56789 3.52498L2.8147 6.49801ZM2.8147 6.49801C3.27964 6.50352 3.72801 6.32464 4.0614 6.00036C4.39564 5.67554 4.58716 5.23122 4.5939 4.76522L4.59399 4.76522L4.59389 4.75919C4.58657 4.2935 4.39475 3.84981 4.06073 3.52545L2.8147 6.49801ZM3.01457 3.03752C3.40627 3.07758 3.77543 3.24834 4.0607 3.52543L3.01457 3.03752ZM3.01457 3.03752V3.03143L2.90852 3.0299C2.87688 3.02859 2.84514 3.02813 2.81331 3.02853C2.81284 3.02854 2.81237 3.02855 2.81191 3.02855L2.72341 3.02975M3.01457 3.03752L2.72341 3.02975M2.72341 3.02975L2.65104 3.03072L2.65034 3.03412M2.72341 3.02975L2.65034 3.03412M2.65034 3.03412C2.24524 3.06687 1.86201 3.23928 1.56793 3.52495L2.65034 3.03412ZM3.38432 4.193L3.38436 4.19304C3.53485 4.35067 3.61699 4.56158 3.61294 4.77957C3.60875 4.9976 3.51865 5.20517 3.36227 5.35706L3.36226 5.35707C3.20586 5.509 2.9957 5.59301 2.77768 5.59078C2.55967 5.58854 2.35133 5.50026 2.198 5.34512L2.19795 5.34506C2.04499 5.1904 1.95919 4.98155 1.95916 4.76399C1.96282 4.5415 2.05435 4.32965 2.21389 4.17469C2.37331 4.01986 2.58759 3.93456 2.80968 3.93736C3.02745 3.94348 3.2339 4.03534 3.38432 4.193Z" fill="#8492AA" stroke="#8492AA" stroke-width="0.4"/>
<path d="M16.1779 7.71468V7.71469L16.1794 7.71468C16.4648 7.71255 16.7394 7.8233 16.9435 8.02283C17.1472 8.22206 17.264 8.49369 17.2686 8.77857V16.0955H15.0795V8.77858C15.0841 8.49256 15.2019 8.21994 15.4069 8.0206C15.6124 7.82082 15.8887 7.71086 16.1752 7.71467L16.1752 7.71468H16.1779H16.1779ZM14.7608 7.37084L14.7608 7.37084C14.381 7.73988 14.1634 8.24457 14.1556 8.77409L14.1556 8.77409V8.77704V16.8043V17.0043H14.3556H18.0001H18.2001V16.8043V8.77704H18.2001L18.2001 8.77409C18.1923 8.24457 17.9747 7.73991 17.5949 7.37087C17.2159 7.00246 16.7063 6.79935 16.1779 6.80596C15.6493 6.79934 15.1399 7.00248 14.7608 7.37084Z" fill="#8492AA" stroke="#8492AA" stroke-width="0.4"/>
<path d="M16.3778 3.03737C16.7697 3.07713 17.1391 3.24768 17.4245 3.52493L16.3778 3.03737ZM16.3778 3.03737V3.03123L16.2701 3.02978M16.3778 3.03737L16.2701 3.02978M16.2701 3.02978C16.2394 3.02856 16.2086 3.02814 16.1778 3.02854C16.1787 3.02855 16.1796 3.02856 16.1805 3.02857L16.2701 3.02978ZM14.3985 4.75921L14.3985 4.75921C14.4058 4.29353 14.5977 3.84982 14.9317 3.52547L14.3985 4.75921ZM14.3985 4.75921V4.76235M14.3985 4.75921V4.76235M14.3985 4.76235C14.3985 5.39802 14.7377 5.98541 15.2882 6.30331L15.2882 6.30333M14.3985 4.76235L15.2882 6.30333M15.2882 6.30333C15.8387 6.62107 16.5169 6.62107 17.0674 6.30333L17.0674 6.30333M15.2882 6.30333L17.0674 6.30333M17.0674 6.30333C17.618 5.98544 17.9571 5.39799 17.9571 4.76235L17.9571 4.75946M17.0674 6.30333L17.9571 4.75946M17.9571 4.75946C17.9503 4.29358 17.7588 3.84951 17.4245 3.52496L17.9571 4.75946ZM15.5772 4.17468C15.7366 4.01984 15.9507 3.93455 16.1729 3.93735C16.3906 3.94347 16.597 4.03532 16.7474 4.19297L16.7475 4.19303C16.898 4.35071 16.9802 4.56161 16.9761 4.77946L17.176 4.78328L16.9761 4.77946C16.9719 4.99753 16.8818 5.20513 16.7254 5.35705L16.7254 5.35706C16.569 5.50899 16.3589 5.593 16.1408 5.59076C15.9228 5.58852 15.7145 5.50024 15.5613 5.34515L15.5612 5.34505C15.4082 5.19038 15.3224 4.9815 15.3224 4.76393C15.326 4.54155 15.4176 4.32969 15.5772 4.17468ZM16.0854 3.02986L16.0211 3.03079L16.0204 3.03371C15.6129 3.06539 15.2273 3.23834 14.9317 3.52544L16.0854 3.02986Z" fill="#8492AA" stroke="#8492AA" stroke-width="0.4"/>
</svg>
