<svg width="97" height="25" viewBox="0 0 97 25" fill="none" xmlns="http://www.w3.org/2000/svg">
<mask id="mask0_2_352" style="mask-type:alpha" maskUnits="userSpaceOnUse" x="0" y="0" width="18" height="18">
<path fill-rule="evenodd" clip-rule="evenodd" d="M0 0H17.5438V17.3505H0V0Z" fill="white"/>
</mask>
<g mask="url(#mask0_2_352)">
<path fill-rule="evenodd" clip-rule="evenodd" d="M17.5438 15.7685V1.58185C17.5438 1.39988 17.5121 1.22546 17.4545 1.06267C17.2581 0.539413 16.7608 0.115576 16.1976 0.0202268L16.1882 0.0184826C16.1858 0.0179012 16.1835 0.0179012 16.1811 0.0173198C16.1035 0.00627328 16.0247 -0.00012207 15.9442 -0.00012207H1.59937C0.719907 -0.00012207 -0.000244141 0.712087 -0.000244141 1.58185V15.7685C-0.000244141 15.9499 0.0315013 16.1243 0.0897013 16.2877C0.285465 16.8109 0.78281 17.2348 1.346 17.3301C1.34953 17.3307 1.35246 17.3313 1.3554 17.3313C1.35776 17.3319 1.36011 17.3319 1.36305 17.3324C1.44006 17.3441 1.51942 17.3505 1.59937 17.3505H7.72154L1.88508 9.91907H4.98967L10.8267 17.3505H12.6938L6.85677 9.91907H10.5057C11.1459 9.91907 11.6121 9.7679 11.9325 9.45453C12.25 9.1429 12.404 8.68651 12.404 8.06267C12.404 7.15395 12.1306 6.22488 10.0989 6.22488H3.95383L2.03676 3.7836H10.5875C11.9366 3.7836 13.033 4.17837 13.8455 4.95802C14.662 5.7429 15.0759 6.80046 15.0759 8.10279C15.0759 9.29058 14.7038 10.2737 13.9707 11.0226C13.4416 11.5633 12.7414 11.9446 11.8808 12.1633L15.7984 17.3505H15.9442C16.8237 17.3505 17.5438 16.6383 17.5438 15.7685" fill="#F17D21"/>
</g>
<mask id="mask1_2_352" style="mask-type:alpha" maskUnits="userSpaceOnUse" x="0" y="0" width="97" height="25">
<path fill-rule="evenodd" clip-rule="evenodd" d="M0 25H96.8495V0H0V25Z" fill="white"/>
</mask>
<g mask="url(#mask1_2_352)">
<path fill-rule="evenodd" clip-rule="evenodd" d="M32.4033 17.35H34.8718V3.25465H32.4033V17.35Z" fill="white"/>
<path fill-rule="evenodd" clip-rule="evenodd" d="M36.3663 7.75383C36.3663 6.94046 36.5392 6.23407 36.8866 5.63581C37.2335 5.03756 37.6967 4.5393 38.2775 4.13988C38.8584 3.74221 39.5238 3.44628 40.274 3.255C41.0241 3.06372 41.8024 2.96779 42.609 2.96779C43.2057 2.96779 43.8071 3.0236 44.412 3.13523C45.017 3.24686 45.5937 3.43407 46.1422 3.69686C46.6907 3.96081 47.1909 4.31197 47.6424 4.75035C48.0939 5.1893 48.4731 5.73581 48.7794 6.3893L46.5537 7.39453C46.392 7.02825 46.1698 6.71721 45.8882 6.46139C45.6054 6.20674 45.2868 5.9986 44.9323 5.8393C44.5772 5.68 44.1981 5.56372 43.7948 5.49221C43.3915 5.42011 42.9964 5.38465 42.609 5.38465C42.0929 5.38465 41.6049 5.43639 41.1452 5.53988C40.6855 5.64395 40.2863 5.79977 39.9477 6.00674C39.6091 6.21488 39.3381 6.46139 39.137 6.7486C38.9348 7.03639 38.8342 7.37128 38.8342 7.75383V12.7317C38.8342 13.1783 38.9554 13.5533 39.1976 13.8562C39.4392 14.1596 39.7455 14.4067 40.1164 14.598C40.488 14.7899 40.8948 14.9253 41.3386 15.005C41.7825 15.0846 42.2057 15.1248 42.609 15.1248C43.3838 15.1248 44.1416 14.9771 44.8835 14.6817C45.6254 14.387 46.2062 13.88 46.626 13.1626L48.8041 14.1434C48.4655 14.7817 48.0657 15.3201 47.606 15.7591C47.1463 16.1974 46.646 16.5486 46.1057 16.812C45.5649 17.0748 44.9964 17.2626 44.3997 17.3742C43.803 17.4852 43.2057 17.5416 42.609 17.5416C41.7384 17.5416 40.923 17.4376 40.1652 17.2306C39.4068 17.0236 38.7455 16.716 38.1805 16.3091C37.6162 15.9027 37.1723 15.3992 36.8502 14.8015C36.5268 14.2033 36.3663 13.5131 36.3663 12.7317V7.75383Z" fill="white"/>
<path fill-rule="evenodd" clip-rule="evenodd" d="M52.2393 12.6599C52.2393 13.0588 52.3398 13.4099 52.542 13.7128C52.7431 14.0158 53.0176 14.271 53.3651 14.4785C53.7113 14.6855 54.1105 14.846 54.5626 14.957C55.0141 15.0692 55.4897 15.1245 55.9899 15.1245C56.4896 15.1245 56.9699 15.0692 57.4297 14.957C57.8894 14.846 58.2927 14.6855 58.6395 14.4785C58.9864 14.271 59.265 14.0158 59.4743 13.7128C59.6842 13.4099 59.7894 13.0588 59.7894 12.6599V7.8018C59.7894 7.41866 59.6842 7.0797 59.4743 6.78494C59.265 6.48959 58.9864 6.23843 58.6395 6.03087C58.2927 5.82331 57.8894 5.66808 57.4297 5.56401C56.9699 5.46052 56.4896 5.40819 55.9899 5.40819C55.4897 5.40819 55.0141 5.46052 54.5626 5.56401C54.1105 5.66808 53.7113 5.82331 53.3651 6.03087C53.0176 6.23843 52.7431 6.48959 52.542 6.78494C52.3398 7.0797 52.2393 7.41866 52.2393 7.8018V12.6599ZM49.7714 12.6599V7.8018C49.7714 7.0204 49.933 6.3297 50.2558 5.73145C50.5791 5.13319 51.0194 4.63087 51.5773 4.22389C52.1352 3.8175 52.7936 3.51052 53.5532 3.30238C54.3127 3.0954 55.1293 2.99133 56.0023 2.99133C56.8747 2.99133 57.6954 3.0954 58.4626 3.30238C59.2303 3.51052 59.8929 3.8175 60.4508 4.22389C61.0087 4.63087 61.449 5.13319 61.7723 5.73145C62.0957 6.3297 62.2573 7.0204 62.2573 7.8018V12.6599C62.2573 13.4419 62.0957 14.1355 61.7723 14.7419C61.449 15.3483 61.0087 15.8588 60.4508 16.2733C59.8929 16.6884 59.2303 17.0035 58.4626 17.2187C57.6954 17.4344 56.8747 17.5413 56.0023 17.5413C55.1293 17.5413 54.3127 17.4344 53.5532 17.2187C52.7936 17.0035 52.1352 16.6884 51.5773 16.2733C51.0194 15.8588 50.5791 15.3483 50.2558 14.7419C49.933 14.1355 49.7714 13.4419 49.7714 12.6599V12.6599Z" fill="white"/>
<path fill-rule="evenodd" clip-rule="evenodd" d="M94.3814 12.6117V11.5105H89.1235C88.6573 11.5105 88.2793 11.5669 87.9894 11.6791C87.7002 11.7908 87.4668 11.9216 87.2899 12.0733C87.1129 12.2256 86.9924 12.3844 86.9283 12.5518C86.8637 12.7198 86.8319 12.8594 86.8319 12.971C86.8319 13.3535 86.9324 13.6809 87.1329 13.9524C87.3345 14.2233 87.6079 14.4466 87.953 14.6221C88.2987 14.7977 88.7014 14.9251 89.1593 15.0047C89.6179 15.0849 90.104 15.1245 90.619 15.1245C91.5032 15.1245 92.1945 15.0251 92.6931 14.8256C93.1916 14.6262 93.5655 14.3913 93.8147 14.1198C94.064 13.8489 94.2209 13.5733 94.285 13.2937C94.3497 13.0146 94.3814 12.7878 94.3814 12.6117M90.6555 2.99133C91.4938 2.99133 92.288 3.08726 93.0381 3.27854C93.7889 3.46982 94.4443 3.7611 95.0058 4.15238C95.5672 4.54308 96.0146 5.03436 96.3491 5.62389C96.683 6.21459 96.8499 6.91633 96.8499 7.73029V12.6117C96.8499 13.4733 96.7 14.2117 96.4008 14.8256C96.1022 15.4396 95.6777 15.9501 95.1286 16.357C94.5784 16.764 93.92 17.0628 93.1528 17.2541C92.3844 17.446 91.5402 17.5413 90.619 17.5413C89.746 17.5413 88.9295 17.4541 88.1699 17.2791C87.4104 17.1047 86.7478 16.8297 86.1817 16.4559C85.6162 16.082 85.1717 15.6088 84.8484 15.0361C84.5251 14.4634 84.3634 13.7791 84.3634 12.9838C84.3634 12.3797 84.4804 11.8384 84.7144 11.3611C84.9483 10.8838 85.2711 10.478 85.6826 10.1442C86.0935 9.81052 86.5903 9.5518 87.1705 9.36866C87.7513 9.18552 88.3962 9.09424 89.1064 9.09424H94.3814V7.7454C94.3814 7.36052 94.2844 7.02273 94.091 6.73377C93.8976 6.44424 93.6313 6.20412 93.2927 6.01052C92.9541 5.8175 92.5584 5.66982 92.1069 5.56517C91.6549 5.46052 91.171 5.40819 90.6555 5.40819C89.0417 5.40819 87.8801 5.91924 87.1705 6.94017L85.0412 5.6954C85.6056 4.77098 86.364 4.08901 87.3157 3.64947C88.2675 3.2111 89.3804 2.99133 90.6555 2.99133" fill="white"/>
<path fill-rule="evenodd" clip-rule="evenodd" d="M83.2462 11.6902V7.8018C83.2462 7.0204 83.1087 6.32622 82.8347 5.71924C82.5602 5.11343 82.1775 4.61052 81.6854 4.21226C81.1928 3.81343 80.609 3.51052 79.9312 3.30238C79.2534 3.0954 78.5191 2.99133 77.729 2.99133C76.8254 2.99133 75.9906 3.0954 75.2246 3.30238C74.458 3.51052 73.8408 3.8611 73.3734 4.35587C72.9054 3.8611 72.3046 3.51052 71.5704 3.30238C70.8361 3.0954 70.0013 2.99133 69.066 2.99133C68.3076 2.99133 67.594 3.08726 66.9244 3.27854C66.2554 3.46982 65.6704 3.76517 65.1701 4.16459C64.6698 4.56284 64.2707 5.06168 63.9726 5.65994C63.674 6.25819 63.5247 6.97215 63.5247 7.8018V17.3501H65.9932V7.8018C65.9932 7.40296 66.0778 7.0518 66.2465 6.74889C66.4164 6.4454 66.6381 6.19482 66.9126 5.99482C67.1866 5.7954 67.5087 5.64773 67.8803 5.5518C68.2512 5.45645 68.6468 5.40819 69.066 5.40819C69.9854 5.40819 70.7315 5.61633 71.3046 6.03087C71.8767 6.4454 72.1635 7.0361 72.1635 7.8018V17.3501H74.6315V7.8018C74.6315 7.40296 74.7161 7.0518 74.8848 6.74889C75.053 6.4454 75.2781 6.19482 75.5591 5.99482C75.8407 5.7954 76.1699 5.64773 76.5479 5.5518C76.9254 5.45645 77.3228 5.40819 77.7407 5.40819C78.6249 5.40819 79.3515 5.61633 79.9224 6.03087C80.492 6.4454 80.7777 7.0361 80.7777 7.8018V14.1309H80.7783V15.589C80.7783 16.6675 81.6619 17.5413 82.7524 17.5413H83.2462V11.6902Z" fill="white"/>
<path fill-rule="evenodd" clip-rule="evenodd" d="M28.3119 3.3389C26.4401 3.3389 24.9769 3.74878 23.9205 4.56971C22.8635 5.39006 22.335 6.53541 22.335 8.00459V14.2278V17.5418H22.8288C23.9193 17.5418 24.8035 16.6674 24.8035 15.5889V11.6901V8.00459C24.8035 7.28599 25.1215 6.7232 25.7594 6.3168C26.396 5.91041 27.2473 5.70692 28.3119 5.70692H31.5788V3.3389H28.3119Z" fill="white"/>
<path fill-rule="evenodd" clip-rule="evenodd" d="M32.6858 -0.000167847H34.5652C34.7346 -0.000167847 34.8715 0.135297 34.8715 0.302739V1.58762C34.8715 1.75506 34.7346 1.89053 34.5652 1.89053H32.6858C32.5165 1.89053 32.3795 1.75506 32.3795 1.58762V0.302739C32.3795 0.135297 32.5165 -0.000167847 32.6858 -0.000167847" fill="#F17D21"/>
<path fill-rule="evenodd" clip-rule="evenodd" d="M35.9291 21.0686H34.6122L33.9197 24.9535H33.5458L34.2383 21.0686H32.9332L32.9991 20.6988H35.9949L35.9291 21.0686Z" fill="white"/>
<path fill-rule="evenodd" clip-rule="evenodd" d="M40.8661 20.6989L40.1077 24.953H39.7338L40.0966 22.917H37.902L37.5387 24.953H37.1648L37.9232 20.6989H38.2971L37.9678 22.5478H40.163L40.4922 20.6989H40.8661Z" fill="white"/>
<path fill-rule="evenodd" clip-rule="evenodd" d="M43.6439 20.6933L42.8844 24.9532H42.5105L43.27 20.6933H43.6439Z" fill="white"/>
<path fill-rule="evenodd" clip-rule="evenodd" d="M45.293 24.9533L46.0519 20.6992H46.4552L48.0278 24.2899L48.668 20.6992H49.0413L48.2829 24.9533H47.8732L46.3071 21.362L45.6669 24.9533H45.293Z" fill="white"/>
<path fill-rule="evenodd" clip-rule="evenodd" d="M51.4447 20.6989H51.8186L51.4683 22.6646L53.9897 20.6989H54.5476L51.8192 22.8228L53.801 24.953H53.2554L51.4124 22.9757L51.0603 24.953H50.6858L51.4447 20.6989Z" fill="white"/>
<path fill-rule="evenodd" clip-rule="evenodd" d="M59.0819 24.5837H60.5928C60.6445 24.5837 60.7127 24.5784 60.7974 24.5691C60.8826 24.5592 60.969 24.5255 61.0566 24.4691C61.1436 24.4121 61.2265 24.3215 61.3041 24.1965C61.3823 24.0709 61.4417 23.8935 61.4828 23.6621C61.5281 23.4081 61.4993 23.2203 61.3958 23.0988C61.2924 22.9773 61.1237 22.9174 60.8897 22.9174H59.3788L59.0819 24.5837ZM59.4447 22.5476H60.962C61.1642 22.5476 61.3282 22.4802 61.4535 22.3447C61.5787 22.2098 61.661 22.0308 61.701 21.8081C61.7439 21.5656 61.7292 21.3813 61.6563 21.2563C61.5834 21.1313 61.4376 21.0685 61.2201 21.0685H59.7086L59.4447 22.5476ZM58.6422 24.9534L59.4006 20.6988H61.2871C61.6075 20.6988 61.8344 20.7976 61.9673 20.9953C62.1001 21.193 62.136 21.4639 62.0742 21.8081C62.039 22.0075 61.9755 22.1813 61.8838 22.3302C61.7915 22.479 61.6774 22.6046 61.541 22.7063C61.5898 22.7412 61.6386 22.7837 61.6868 22.8348C61.735 22.8854 61.7762 22.9494 61.8097 23.0255C61.8438 23.1017 61.8661 23.1918 61.8773 23.2953C61.8885 23.3994 61.8814 23.5215 61.8567 23.6621C61.7832 24.0726 61.6369 24.3906 61.417 24.6156C61.1965 24.8406 60.9008 24.9534 60.5287 24.9534H58.6422Z" fill="white"/>
<path fill-rule="evenodd" clip-rule="evenodd" d="M67.19 21.0686H64.7398L64.4764 22.5477H66.2383L66.1724 22.9174H64.41L64.1131 24.5837H66.5634L66.4975 24.9535H63.6733L64.4323 20.6988H67.2559L67.19 21.0686Z" fill="white"/>
<path fill-rule="evenodd" clip-rule="evenodd" d="M69.7313 24.9533H69.3574L69.7184 22.9288L68.7155 20.6992H69.1487L69.9782 22.5358L71.4979 20.6992H71.9312L70.0923 22.9288L69.7313 24.9533Z" fill="white"/>
<path fill-rule="evenodd" clip-rule="evenodd" d="M75.3819 23.9074L75.7687 21.7388C75.7775 21.6883 75.7822 21.622 75.7828 21.5423C75.7834 21.4615 75.7558 21.383 75.7005 21.3069C75.6446 21.2307 75.5476 21.1638 75.4095 21.1074C75.2713 21.0505 75.0674 21.022 74.7987 21.022C74.5259 21.022 74.3102 21.0505 74.1514 21.1074C73.9933 21.1638 73.8722 21.2313 73.7893 21.3098C73.7058 21.3883 73.6512 21.4685 73.6247 21.5505C73.5977 21.633 73.5806 21.6976 73.5724 21.7447L73.1879 23.9016C73.1791 23.9487 73.1738 24.0133 73.1709 24.0952C73.1679 24.1778 73.1944 24.2586 73.2496 24.3365C73.3049 24.415 73.4013 24.483 73.5395 24.5423C73.677 24.601 73.8828 24.6301 74.1556 24.6301C74.4242 24.6301 74.6382 24.6016 74.7963 24.5452C74.9551 24.4883 75.0756 24.4208 75.1591 24.3423C75.242 24.2638 75.2978 24.1842 75.3266 24.1016C75.3548 24.0191 75.373 23.9545 75.3819 23.9074M76.1397 21.7551L75.7599 23.8853C75.6935 24.2569 75.5177 24.5353 75.2337 24.7208C74.9492 24.9074 74.5683 24.9999 74.0891 24.9999C73.6106 24.9999 73.2626 24.9074 73.0445 24.7208C72.8264 24.5353 72.7505 24.2569 72.817 23.8853L73.1967 21.7551C73.2608 21.3958 73.4348 21.1214 73.7199 20.9336C74.0045 20.7464 74.386 20.6522 74.8645 20.6522C75.3431 20.6522 75.6917 20.7446 75.9098 20.9278C76.1285 21.1115 76.2049 21.3877 76.1397 21.7551" fill="white"/>
<path fill-rule="evenodd" clip-rule="evenodd" d="M77.6754 24.9533L78.4338 20.6992H78.8371L80.4096 24.2899L81.0504 20.6992H81.4237L80.6654 24.9533H80.255L78.6895 21.362L78.0493 24.9533H77.6754Z" fill="white"/>
<path fill-rule="evenodd" clip-rule="evenodd" d="M84.9327 21.0686H83.838L83.2113 24.5837H84.306C84.4294 24.5837 84.5546 24.5733 84.6834 24.5541C84.8115 24.5349 84.9303 24.4983 85.0391 24.4459C85.1472 24.393 85.2413 24.3203 85.3212 24.2285C85.4012 24.1366 85.4541 24.0163 85.4811 23.8674L85.8574 21.7552C85.8797 21.6302 85.8733 21.5233 85.8374 21.4355C85.8015 21.3471 85.7416 21.2756 85.6581 21.2215C85.5746 21.1669 85.4717 21.1273 85.3489 21.1041C85.226 21.0808 85.0873 21.0686 84.9327 21.0686V21.0686ZM83.5306 20.6988H85.0014C85.4447 20.6988 85.7757 20.7884 85.9955 20.9657C86.2148 21.1442 86.293 21.407 86.2313 21.7552L85.8544 23.8674C85.791 24.2238 85.6164 24.4936 85.3306 24.6773C85.0443 24.861 84.6822 24.9535 84.2431 24.9535H82.7716L83.5306 20.6988Z" fill="white"/>
</g>
</svg>
